<?xml version="1.0" standalone="no"?>
<!DOCTYPE svg PUBLIC "-//W3C//DTD SVG 20010904//EN"
 "http://www.w3.org/TR/2001/REC-SVG-20010904/DTD/svg10.dtd">
<svg version="1.0" xmlns="http://www.w3.org/2000/svg"
 width="500.000000pt" height="500.000000pt" viewBox="0 0 500.000000 500.000000"
 preserveAspectRatio="xMidYMid meet">
<metadata>
Created by potrace 1.14, written by Peter Selinger 2001-2017
</metadata>
<g transform="translate(0.000000,500.000000) scale(0.100000,-0.100000)"
fill="#000000" stroke="none">
<path d="M0 2500 l0 -2500 2500 0 2500 0 0 2500 0 2500 -2500 0 -2500 0 0
-2500z m1550 786 c181 -59 295 -168 334 -321 23 -86 23 -733 1 -820 -44 -166
-182 -292 -364 -331 -88 -18 -661 -20 -679 -2 -9 9 -12 187 -12 739 0 664 1
729 17 744 14 15 48 16 332 13 269 -4 324 -7 371 -22z m1410 4 c18 -18 20 -33
20 -170 0 -147 -1 -152 -25 -175 l-24 -25 -256 0 -255 0 0 -85 0 -85 154 0
c127 0 157 -3 170 -16 13 -13 16 -43 16 -170 0 -88 -4 -164 -10 -175 -10 -18
-23 -19 -170 -19 l-160 0 0 -95 0 -95 264 0 c262 0 265 0 280 -22 23 -33 23
-303 0 -336 l-15 -22 -474 0 c-459 0 -475 1 -485 19 -7 13 -10 262 -10 737 0
654 1 719 17 736 15 17 43 18 480 18 450 0 464 -1 483 -20z m504 4 c9 -8 18
-25 21 -37 7 -33 125 -684 125 -693 0 -4 2 -5 5 -2 3 3 34 167 70 364 50 282
67 361 81 371 24 18 404 19 422 1 7 -7 12 -23 12 -37 0 -38 -357 -1430 -371
-1447 -16 -19 -431 -21 -447 -1 -9 11 -372 1429 -372 1455 0 6 7 18 16 26 23
24 415 24 438 0z"/>
<path d="M880 2549 l0 -711 293 5 c229 4 305 8 351 21 136 38 242 122 294 234
l27 57 0 400 0 400 -27 58 c-34 73 -115 153 -192 190 -100 49 -163 57 -468 57
l-278 0 0 -711z m555 401 c67 -41 70 -60 70 -395 0 -285 -1 -302 -21 -340 -12
-22 -34 -48 -50 -57 -39 -23 -178 -35 -199 -18 -13 11 -15 66 -15 405 0 217 3
400 6 409 10 26 166 23 209 -4z"/>
<path d="M1270 2550 l0 -370 50 0 c68 0 104 20 124 70 13 34 16 85 16 310 0
148 -4 280 -10 294 -19 51 -45 66 -115 66 l-65 0 0 -370z"/>
<path d="M2030 2550 l0 -710 448 2 447 3 3 143 3 142 -265 0 c-227 0 -267 2
-280 16 -13 12 -16 40 -16 134 0 108 2 120 19 130 11 5 86 10 170 10 l151 0 0
140 0 140 -154 0 c-127 0 -157 3 -170 16 -21 21 -23 225 -3 243 9 7 103 12
278 13 l264 3 3 143 3 142 -451 0 -450 0 0 -710z"/>
<path d="M3060 3258 c0 -2 81 -320 179 -708 l178 -705 189 0 188 0 178 695
c98 382 178 701 178 708 0 9 -42 12 -178 12 l-179 0 -43 -242 c-105 -595 -104
-590 -122 -602 -13 -8 -21 -7 -29 1 -7 7 -45 193 -86 415 -40 222 -75 409 -78
416 -3 9 -51 12 -190 12 -102 0 -185 -1 -185 -2z"/>
</g>
</svg>
